<?xml version="1.0" encoding="UTF-8" standalone="no"?>
<!DOCTYPE svg PUBLIC "-//W3C//DTD SVG 1.1//EN"
 "http://www.w3.org/Graphics/SVG/1.1/DTD/svg11.dtd">
<!-- Generated by graphviz version 2.43.0 (0)
 -->
<!-- Title: %3 Pages: 1 -->
<svg width="2011pt" height="1052pt"
 viewBox="0.00 0.00 2011.08 1052.00" xmlns="http://www.w3.org/2000/svg" xmlns:xlink="http://www.w3.org/1999/xlink">
<g id="graph0" class="graph" transform="scale(1 1) rotate(0) translate(4 1048)">
<title>%3</title>
<polygon fill="white" stroke="transparent" points="-4,4 -4,-1048 2007.08,-1048 2007.08,4 -4,4"/>
<!-- xb -->
<g id="node1" class="node">
<title>xb</title>
<ellipse fill="none" stroke="black" cx="59" cy="-1026" rx="27" ry="18"/>
<text text-anchor="middle" x="59" y="-1022.3" font-family="Times,serif" font-size="14.00">xb</text>
</g>
<!-- &amp;xz -->
<g id="node2" class="node">
<title>&amp;xz</title>
<ellipse fill="none" stroke="black" cx="97" cy="-954" rx="29.5" ry="18"/>
<text text-anchor="middle" x="97" y="-950.3" font-family="Times,serif" font-size="14.00">&amp;xz</text>
</g>
<!-- xb&#45;&gt;&amp;xz -->
<g id="edge1" class="edge">
<title>xb&#45;&gt;&amp;xz</title>
<path fill="none" stroke="black" d="M67.81,-1008.76C72.35,-1000.4 77.99,-990.02 83.1,-980.61"/>
<polygon fill="black" stroke="black" points="86.28,-982.09 87.97,-971.63 80.12,-978.75 86.28,-982.09"/>
</g>
<!-- bq -->
<g id="node3" class="node">
<title>bq</title>
<ellipse fill="none" stroke="black" cx="27" cy="-882" rx="27" ry="18"/>
<text text-anchor="middle" x="27" y="-878.3" font-family="Times,serif" font-size="14.00">bq</text>
</g>
<!-- xb&#45;&gt;bq -->
<g id="edge2" class="edge">
<title>xb&#45;&gt;bq</title>
<path fill="none" stroke="black" d="M55.2,-1008.15C49.72,-983.81 39.52,-938.57 33.01,-909.67"/>
<polygon fill="black" stroke="black" points="36.4,-908.81 30.79,-899.82 29.58,-910.35 36.4,-908.81"/>
</g>
<!-- &amp;xz&#45;&gt;bq -->
<g id="edge73" class="edge">
<title>&amp;xz&#45;&gt;bq</title>
<path fill="none" stroke="black" d="M82.15,-938.15C72.37,-928.37 59.4,-915.4 48.5,-904.5"/>
<polygon fill="black" stroke="black" points="50.89,-901.94 41.35,-897.35 45.94,-906.89 50.89,-901.94"/>
</g>
<!-- sj -->
<g id="node8" class="node">
<title>sj</title>
<ellipse fill="none" stroke="black" cx="120" cy="-522" rx="27" ry="18"/>
<text text-anchor="middle" x="120" y="-518.3" font-family="Times,serif" font-size="14.00">sj</text>
</g>
<!-- &amp;xz&#45;&gt;sj -->
<g id="edge75" class="edge">
<title>&amp;xz&#45;&gt;sj</title>
<path fill="none" stroke="black" d="M93.78,-936.1C89.4,-912.15 81.79,-866.93 79,-828 71.59,-724.55 98.99,-602.61 112.67,-549.71"/>
<polygon fill="black" stroke="black" points="116.12,-550.35 115.29,-539.79 109.36,-548.56 116.12,-550.35"/>
</g>
<!-- gr -->
<g id="node54" class="node">
<title>gr</title>
<ellipse fill="none" stroke="black" cx="327" cy="-162" rx="27" ry="18"/>
<text text-anchor="middle" x="327" y="-158.3" font-family="Times,serif" font-size="14.00">gr</text>
</g>
<!-- &amp;xz&#45;&gt;gr -->
<g id="edge74" class="edge">
<title>&amp;xz&#45;&gt;gr</title>
<path fill="none" stroke="black" d="M125.83,-950.29C203.21,-943.25 409.99,-923.35 430,-900 482.78,-838.41 448.54,-949.38 342,-324 334.02,-277.15 326.17,-222.37 324.27,-190.3"/>
<polygon fill="black" stroke="black" points="327.75,-189.81 323.86,-179.96 320.76,-190.09 327.75,-189.81"/>
</g>
<!-- &amp;zf -->
<g id="node55" class="node">
<title>&amp;zf</title>
<ellipse fill="none" stroke="black" cx="548" cy="-882" rx="27.1" ry="18"/>
<text text-anchor="middle" x="548" y="-878.3" font-family="Times,serif" font-size="14.00">&amp;zf</text>
</g>
<!-- &amp;xz&#45;&gt;&amp;zf -->
<g id="edge77" class="edge">
<title>&amp;xz&#45;&gt;&amp;zf</title>
<path fill="none" stroke="black" d="M126.28,-950.9C192.57,-945.74 358.99,-930.61 495,-900 501.43,-898.55 508.2,-896.67 514.67,-894.68"/>
<polygon fill="black" stroke="black" points="516.05,-897.92 524.5,-891.53 513.91,-891.25 516.05,-897.92"/>
</g>
<!-- rv -->
<g id="node56" class="node">
<title>rv</title>
<ellipse fill="none" stroke="black" cx="123" cy="-738" rx="27" ry="18"/>
<text text-anchor="middle" x="123" y="-734.3" font-family="Times,serif" font-size="14.00">rv</text>
</g>
<!-- &amp;xz&#45;&gt;rv -->
<g id="edge76" class="edge">
<title>&amp;xz&#45;&gt;rv</title>
<path fill="none" stroke="black" d="M106.62,-936.74C119.72,-913.55 142.5,-869.21 151,-828 154.23,-812.33 154.85,-807.53 151,-792 148.57,-782.21 143.97,-772.23 139.18,-763.62"/>
<polygon fill="black" stroke="black" points="142.12,-761.7 134.02,-754.87 136.09,-765.26 142.12,-761.7"/>
</g>
<!-- rr -->
<g id="node48" class="node">
<title>rr</title>
<ellipse fill="none" stroke="black" cx="115" cy="-810" rx="27" ry="18"/>
<text text-anchor="middle" x="115" y="-806.3" font-family="Times,serif" font-size="14.00">rr</text>
</g>
<!-- bq&#45;&gt;rr -->
<g id="edge52" class="edge">
<title>bq&#45;&gt;rr</title>
<path fill="none" stroke="black" d="M43.97,-867.5C57.08,-857.08 75.41,-842.49 90.17,-830.75"/>
<polygon fill="black" stroke="black" points="92.74,-833.18 98.38,-824.22 88.38,-827.7 92.74,-833.18"/>
</g>
<!-- xk -->
<g id="node4" class="node">
<title>xk</title>
<ellipse fill="none" stroke="black" cx="800" cy="-954" rx="27" ry="18"/>
<text text-anchor="middle" x="800" y="-950.3" font-family="Times,serif" font-size="14.00">xk</text>
</g>
<!-- &amp;gf -->
<g id="node5" class="node">
<title>&amp;gf</title>
<ellipse fill="none" stroke="black" cx="1269" cy="-882" rx="28.7" ry="18"/>
<text text-anchor="middle" x="1269" y="-878.3" font-family="Times,serif" font-size="14.00">&amp;gf</text>
</g>
<!-- xk&#45;&gt;&amp;gf -->
<g id="edge3" class="edge">
<title>xk&#45;&gt;&amp;gf</title>
<path fill="none" stroke="black" d="M826.44,-949.75C889.18,-942.59 1050.85,-924.18 1185,-900 1200.37,-897.23 1217.36,-893.44 1232.13,-890.14"/>
<polygon fill="black" stroke="black" points="1232.96,-893.54 1241.96,-887.96 1231.44,-886.71 1232.96,-893.54"/>
</g>
<!-- rd -->
<g id="node6" class="node">
<title>rd</title>
<ellipse fill="none" stroke="black" cx="1960" cy="-810" rx="27" ry="18"/>
<text text-anchor="middle" x="1960" y="-806.3" font-family="Times,serif" font-size="14.00">rd</text>
</g>
<!-- xk&#45;&gt;rd -->
<g id="edge4" class="edge">
<title>xk&#45;&gt;rd</title>
<path fill="none" stroke="black" d="M826.95,-952.82C952.73,-951.41 1493.88,-938.86 1919,-828 1922.38,-827.12 1925.86,-826.01 1929.28,-824.8"/>
<polygon fill="black" stroke="black" points="1930.63,-828.03 1938.68,-821.14 1928.09,-821.5 1930.63,-828.03"/>
</g>
<!-- &amp;gf&#45;&gt;xk -->
<g id="edge40" class="edge">
<title>&amp;gf&#45;&gt;xk</title>
<path fill="none" stroke="black" d="M1244.28,-891.17C1231.89,-894.21 1216.8,-897.51 1203,-900 1069.26,-924.1 908.18,-942.48 836.83,-949.68"/>
<polygon fill="black" stroke="black" points="836.17,-946.23 826.57,-950.7 836.86,-953.2 836.17,-946.23"/>
</g>
<!-- &amp;gf&#45;&gt;rd -->
<g id="edge39" class="edge">
<title>&amp;gf&#45;&gt;rd</title>
<path fill="none" stroke="black" d="M1297.51,-879.2C1414.97,-871.71 1857.99,-842.75 1919,-828 1922.4,-827.18 1925.88,-826.11 1929.31,-824.92"/>
<polygon fill="black" stroke="black" points="1930.64,-828.16 1938.72,-821.3 1928.13,-821.62 1930.64,-828.16"/>
</g>
<!-- gg -->
<g id="node34" class="node">
<title>gg</title>
<ellipse fill="none" stroke="black" cx="1841" cy="-666" rx="27" ry="18"/>
<text text-anchor="middle" x="1841" y="-662.3" font-family="Times,serif" font-size="14.00">gg</text>
</g>
<!-- &amp;gf&#45;&gt;gg -->
<g id="edge43" class="edge">
<title>&amp;gf&#45;&gt;gg</title>
<path fill="none" stroke="black" d="M1297.45,-879.01C1396.59,-871.95 1723.18,-847.42 1766,-828 1787.48,-818.26 1834.54,-777.61 1844,-756 1852.55,-736.47 1851.02,-712.15 1847.78,-693.87"/>
<polygon fill="black" stroke="black" points="1851.18,-692.98 1845.75,-683.88 1844.32,-694.38 1851.18,-692.98"/>
</g>
<!-- pt -->
<g id="node42" class="node">
<title>pt</title>
<ellipse fill="none" stroke="black" cx="1132" cy="-306" rx="27" ry="18"/>
<text text-anchor="middle" x="1132" y="-302.3" font-family="Times,serif" font-size="14.00">pt</text>
</g>
<!-- &amp;gf&#45;&gt;pt -->
<g id="edge41" class="edge">
<title>&amp;gf&#45;&gt;pt</title>
<path fill="none" stroke="black" d="M1297.4,-878.38C1346.43,-873.19 1449.54,-859.25 1531,-828 1560.39,-816.72 1564.83,-807.9 1592,-792 1619.5,-775.9 1638.1,-783.61 1654,-756 1661.98,-742.13 1658.33,-735.4 1654,-720 1643.84,-683.9 1638.24,-672.67 1610,-648 1580.02,-621.82 1561.16,-634.01 1528,-612 1508.62,-599.13 1508.37,-590.28 1490,-576 1466.35,-557.61 1456.65,-558.39 1433,-540 1414.63,-525.72 1414.13,-517.24 1395,-504 1364.93,-483.18 1351.07,-488.82 1321,-468 1301.87,-454.76 1301.19,-446.5 1283,-432 1260.45,-414.02 1251.69,-413.8 1229,-396 1201.82,-374.67 1172.91,-347.5 1153.8,-328.82"/>
<polygon fill="black" stroke="black" points="1156.07,-326.14 1146.49,-321.62 1151.16,-331.13 1156.07,-326.14"/>
</g>
<!-- cp -->
<g id="node43" class="node">
<title>cp</title>
<ellipse fill="none" stroke="black" cx="1961" cy="-738" rx="27" ry="18"/>
<text text-anchor="middle" x="1961" y="-734.3" font-family="Times,serif" font-size="14.00">cp</text>
</g>
<!-- &amp;gf&#45;&gt;cp -->
<g id="edge42" class="edge">
<title>&amp;gf&#45;&gt;cp</title>
<path fill="none" stroke="black" d="M1297.55,-879.28C1406.41,-872.61 1791.78,-847.81 1843,-828 1843.67,-827.74 1900.99,-784.41 1935.49,-758.31"/>
<polygon fill="black" stroke="black" points="1937.85,-760.91 1943.72,-752.08 1933.63,-755.33 1937.85,-760.91"/>
</g>
<!-- tz -->
<g id="node44" class="node">
<title>tz</title>
<ellipse fill="none" stroke="black" cx="1550" cy="-522" rx="27" ry="18"/>
<text text-anchor="middle" x="1550" y="-518.3" font-family="Times,serif" font-size="14.00">tz</text>
</g>
<!-- &amp;gf&#45;&gt;tz -->
<g id="edge44" class="edge">
<title>&amp;gf&#45;&gt;tz</title>
<path fill="none" stroke="black" d="M1297.49,-879.55C1379.73,-875.02 1616.06,-859.53 1686,-828 1686,-828 1768,-756 1768,-756 1789.38,-708.78 1762.63,-682.56 1724,-648 1695.84,-622.81 1678.39,-633.01 1647,-612 1631.3,-601.49 1595.43,-567.44 1571.98,-544.64"/>
<polygon fill="black" stroke="black" points="1574.16,-541.87 1564.56,-537.38 1569.27,-546.88 1574.16,-541.87"/>
</g>
<!-- &amp;cd -->
<g id="node45" class="node">
<title>&amp;cd</title>
<ellipse fill="none" stroke="black" cx="1413" cy="-810" rx="29.8" ry="18"/>
<text text-anchor="middle" x="1413" y="-806.3" font-family="Times,serif" font-size="14.00">&amp;cd</text>
</g>
<!-- &amp;gf&#45;&gt;&amp;cd -->
<g id="edge45" class="edge">
<title>&amp;gf&#45;&gt;&amp;cd</title>
<path fill="none" stroke="black" d="M1290.87,-870.37C1314.94,-858.67 1353.85,-839.75 1381.27,-826.42"/>
<polygon fill="black" stroke="black" points="1382.98,-829.48 1390.45,-821.96 1379.92,-823.19 1382.98,-829.48"/>
</g>
<!-- rd&#45;&gt;cp -->
<g id="edge68" class="edge">
<title>rd&#45;&gt;cp</title>
<path fill="none" stroke="black" d="M1960.25,-791.7C1960.36,-783.98 1960.49,-774.71 1960.61,-766.11"/>
<polygon fill="black" stroke="black" points="1964.11,-766.15 1960.76,-756.1 1957.11,-766.05 1964.11,-766.15"/>
</g>
<!-- mt -->
<g id="node7" class="node">
<title>mt</title>
<ellipse fill="none" stroke="black" cx="165" cy="-594" rx="27" ry="18"/>
<text text-anchor="middle" x="165" y="-590.3" font-family="Times,serif" font-size="14.00">mt</text>
</g>
<!-- mt&#45;&gt;&amp;xz -->
<g id="edge5" class="edge">
<title>mt&#45;&gt;&amp;xz</title>
<path fill="none" stroke="black" d="M171.89,-611.86C175.7,-622.12 180.06,-635.59 182,-648 186.11,-674.25 202.22,-846.71 169,-900 159.21,-915.71 142.92,-928.28 128.3,-937.23"/>
<polygon fill="black" stroke="black" points="126.4,-934.29 119.5,-942.33 129.9,-940.35 126.4,-934.29"/>
</g>
<!-- mt&#45;&gt;sj -->
<g id="edge6" class="edge">
<title>mt&#45;&gt;sj</title>
<path fill="none" stroke="black" d="M154.79,-577.12C149.15,-568.34 142.03,-557.26 135.7,-547.42"/>
<polygon fill="black" stroke="black" points="138.52,-545.34 130.17,-538.82 132.63,-549.13 138.52,-545.34"/>
</g>
<!-- vp -->
<g id="node30" class="node">
<title>vp</title>
<ellipse fill="none" stroke="black" cx="139" cy="-450" rx="27" ry="18"/>
<text text-anchor="middle" x="139" y="-446.3" font-family="Times,serif" font-size="14.00">vp</text>
</g>
<!-- sj&#45;&gt;vp -->
<g id="edge26" class="edge">
<title>sj&#45;&gt;vp</title>
<path fill="none" stroke="black" d="M124.6,-504.05C126.75,-496.14 129.35,-486.54 131.76,-477.69"/>
<polygon fill="black" stroke="black" points="135.2,-478.36 134.44,-467.79 128.45,-476.52 135.2,-478.36"/>
</g>
<!-- gx -->
<g id="node9" class="node">
<title>gx</title>
<ellipse fill="none" stroke="black" cx="400" cy="-162" rx="27" ry="18"/>
<text text-anchor="middle" x="400" y="-158.3" font-family="Times,serif" font-size="14.00">gx</text>
</g>
<!-- &amp;jj -->
<g id="node10" class="node">
<title>&amp;jj</title>
<ellipse fill="none" stroke="black" cx="707" cy="-882" rx="27" ry="18"/>
<text text-anchor="middle" x="707" y="-878.3" font-family="Times,serif" font-size="14.00">&amp;jj</text>
</g>
<!-- gx&#45;&gt;&amp;jj -->
<g id="edge7" class="edge">
<title>gx&#45;&gt;&amp;jj</title>
<path fill="none" stroke="black" d="M413.03,-178.28C422.04,-188.85 434.28,-203.25 445,-216 576.72,-372.59 626.52,-400.66 732,-576 768.99,-637.49 788.9,-650.07 805,-720 815.77,-766.78 828.77,-786.89 804,-828 790.52,-850.38 763.94,-863.94 742.01,-871.74"/>
<polygon fill="black" stroke="black" points="740.73,-868.48 732.32,-874.93 742.92,-875.13 740.73,-868.48"/>
</g>
<!-- qv -->
<g id="node11" class="node">
<title>qv</title>
<ellipse fill="none" stroke="black" cx="376" cy="-90" rx="27" ry="18"/>
<text text-anchor="middle" x="376" y="-86.3" font-family="Times,serif" font-size="14.00">qv</text>
</g>
<!-- gx&#45;&gt;qv -->
<g id="edge8" class="edge">
<title>gx&#45;&gt;qv</title>
<path fill="none" stroke="black" d="M394.19,-144.05C391.45,-136.06 388.11,-126.33 385.05,-117.4"/>
<polygon fill="black" stroke="black" points="388.31,-116.11 381.76,-107.79 381.69,-118.38 388.31,-116.11"/>
</g>
<!-- hb -->
<g id="node12" class="node">
<title>hb</title>
<ellipse fill="none" stroke="black" cx="635" cy="-738" rx="27" ry="18"/>
<text text-anchor="middle" x="635" y="-734.3" font-family="Times,serif" font-size="14.00">hb</text>
</g>
<!-- &amp;jj&#45;&gt;hb -->
<g id="edge19" class="edge">
<title>&amp;jj&#45;&gt;hb</title>
<path fill="none" stroke="black" d="M710.55,-863.86C713.54,-845.1 715.66,-814.69 704,-792 695.65,-775.76 679.8,-763.03 665.39,-754.13"/>
<polygon fill="black" stroke="black" points="667.09,-751.07 656.69,-749.08 663.58,-757.13 667.09,-751.07"/>
</g>
<!-- lv -->
<g id="node23" class="node">
<title>lv</title>
<ellipse fill="none" stroke="black" cx="606" cy="-594" rx="27" ry="18"/>
<text text-anchor="middle" x="606" y="-590.3" font-family="Times,serif" font-size="14.00">lv</text>
</g>
<!-- &amp;jj&#45;&gt;lv -->
<g id="edge18" class="edge">
<title>&amp;jj&#45;&gt;lv</title>
<path fill="none" stroke="black" d="M718.49,-865.7C725.34,-855.58 733.39,-841.7 737,-828 741.08,-812.53 740.23,-807.67 737,-792 722.39,-721.12 706.57,-704.21 661,-648 651.68,-636.51 640.04,-624.97 629.87,-615.6"/>
<polygon fill="black" stroke="black" points="632.21,-613 622.44,-608.9 627.52,-618.2 632.21,-613"/>
</g>
<!-- lz -->
<g id="node24" class="node">
<title>lz</title>
<ellipse fill="none" stroke="black" cx="494" cy="-378" rx="27" ry="18"/>
<text text-anchor="middle" x="494" y="-374.3" font-family="Times,serif" font-size="14.00">lz</text>
</g>
<!-- &amp;jj&#45;&gt;lz -->
<g id="edge20" class="edge">
<title>&amp;jj&#45;&gt;lz</title>
<path fill="none" stroke="black" d="M727.32,-870.08C741.92,-860.97 760.47,-846.52 769,-828 779.68,-804.82 757.53,-724.78 756,-720 710.09,-576.63 573.95,-447.55 518.21,-399.2"/>
<polygon fill="black" stroke="black" points="520.15,-396.25 510.28,-392.4 515.59,-401.57 520.15,-396.25"/>
</g>
<!-- &amp;rk -->
<g id="node25" class="node">
<title>&amp;rk</title>
<ellipse fill="none" stroke="black" cx="1089" cy="-810" rx="28.7" ry="18"/>
<text text-anchor="middle" x="1089" y="-806.3" font-family="Times,serif" font-size="14.00">&amp;rk</text>
</g>
<!-- &amp;jj&#45;&gt;&amp;rk -->
<g id="edge21" class="edge">
<title>&amp;jj&#45;&gt;&amp;rk</title>
<path fill="none" stroke="black" d="M733.79,-878.84C791.64,-873.74 932.19,-858.98 1046,-828 1049.43,-827.06 1052.97,-825.94 1056.47,-824.73"/>
<polygon fill="black" stroke="black" points="1057.96,-827.91 1066.11,-821.13 1055.52,-821.35 1057.96,-827.91"/>
</g>
<!-- xv -->
<g id="node26" class="node">
<title>xv</title>
<ellipse fill="none" stroke="black" cx="513" cy="-450" rx="27" ry="18"/>
<text text-anchor="middle" x="513" y="-446.3" font-family="Times,serif" font-size="14.00">xv</text>
</g>
<!-- &amp;jj&#45;&gt;xv -->
<g id="edge22" class="edge">
<title>&amp;jj&#45;&gt;xv</title>
<path fill="none" stroke="black" d="M723.21,-867.57C733.63,-857.82 746.26,-843.64 752,-828 768.75,-782.39 753.93,-764.75 735,-720 687.72,-608.24 655.18,-588.41 568,-504 557.22,-493.56 545.22,-482 535.19,-472.34"/>
<polygon fill="black" stroke="black" points="537.59,-469.79 527.96,-465.38 532.74,-474.83 537.59,-469.79"/>
</g>
<!-- vj -->
<g id="node27" class="node">
<title>vj</title>
<ellipse fill="none" stroke="black" cx="484" cy="-954" rx="27" ry="18"/>
<text text-anchor="middle" x="484" y="-950.3" font-family="Times,serif" font-size="14.00">vj</text>
</g>
<!-- &amp;jj&#45;&gt;vj -->
<g id="edge23" class="edge">
<title>&amp;jj&#45;&gt;vj</title>
<path fill="none" stroke="black" d="M687.33,-894.7C682.66,-896.55 677.71,-898.38 673,-900 620.49,-918.07 558.09,-935.58 519.61,-945.26"/>
<polygon fill="black" stroke="black" points="518.28,-941.98 509.41,-947.77 519.96,-948.77 518.28,-941.98"/>
</g>
<!-- vh -->
<g id="node28" class="node">
<title>vh</title>
<ellipse fill="none" stroke="black" cx="409" cy="-234" rx="27" ry="18"/>
<text text-anchor="middle" x="409" y="-230.3" font-family="Times,serif" font-size="14.00">vh</text>
</g>
<!-- &amp;jj&#45;&gt;vh -->
<g id="edge24" class="edge">
<title>&amp;jj&#45;&gt;vh</title>
<path fill="none" stroke="black" d="M729.85,-872.35C748.18,-864.04 772.67,-849.55 784,-828 821.96,-755.79 782.17,-722.09 748,-648 732.58,-614.56 727.33,-606.7 707,-576 638.47,-472.52 613.32,-451.99 530,-360 496.33,-322.83 455.44,-281.3 430.86,-256.69"/>
<polygon fill="black" stroke="black" points="433.03,-253.91 423.48,-249.33 428.08,-258.87 433.03,-253.91"/>
</g>
<!-- qv&#45;&gt;&amp;jj -->
<g id="edge54" class="edge">
<title>qv&#45;&gt;&amp;jj</title>
<path fill="none" stroke="black" d="M392.79,-104.4C405.25,-114.69 422.38,-129.53 436,-144 530.7,-244.59 743.19,-522.07 800,-648 833.19,-721.57 867.74,-760.17 824,-828 806.32,-855.42 770.63,-868.81 743.3,-875.25"/>
<polygon fill="black" stroke="black" points="742.33,-871.88 733.28,-877.39 743.79,-878.72 742.33,-871.88"/>
</g>
<!-- xr -->
<g id="node49" class="node">
<title>xr</title>
<ellipse fill="none" stroke="black" cx="329" cy="-18" rx="27" ry="18"/>
<text text-anchor="middle" x="329" y="-14.3" font-family="Times,serif" font-size="14.00">xr</text>
</g>
<!-- qv&#45;&gt;xr -->
<g id="edge53" class="edge">
<title>qv&#45;&gt;xr</title>
<path fill="none" stroke="black" d="M365.33,-73.12C359.45,-64.34 352.01,-53.26 345.39,-43.42"/>
<polygon fill="black" stroke="black" points="348.1,-41.17 339.62,-34.82 342.29,-45.07 348.1,-41.17"/>
</g>
<!-- mj -->
<g id="node13" class="node">
<title>mj</title>
<ellipse fill="none" stroke="black" cx="625" cy="-666" rx="27" ry="18"/>
<text text-anchor="middle" x="625" y="-662.3" font-family="Times,serif" font-size="14.00">mj</text>
</g>
<!-- hb&#45;&gt;mj -->
<g id="edge9" class="edge">
<title>hb&#45;&gt;mj</title>
<path fill="none" stroke="black" d="M632.58,-720.05C631.48,-712.35 630.15,-703.03 628.91,-694.36"/>
<polygon fill="black" stroke="black" points="632.35,-693.68 627.47,-684.28 625.42,-694.67 632.35,-693.68"/>
</g>
<!-- mj&#45;&gt;&amp;jj -->
<g id="edge61" class="edge">
<title>mj&#45;&gt;&amp;jj</title>
<path fill="none" stroke="black" d="M641.22,-680.7C664.67,-701.75 706.92,-744.62 722,-792 728.59,-812.69 723.65,-837.06 717.73,-855.06"/>
<polygon fill="black" stroke="black" points="714.39,-854 714.31,-864.6 720.98,-856.36 714.39,-854"/>
</g>
<!-- mj&#45;&gt;lv -->
<g id="edge60" class="edge">
<title>mj&#45;&gt;lv</title>
<path fill="none" stroke="black" d="M620.4,-648.05C618.25,-640.14 615.65,-630.54 613.24,-621.69"/>
<polygon fill="black" stroke="black" points="616.55,-620.52 610.56,-611.79 609.8,-622.36 616.55,-620.52"/>
</g>
<!-- cv -->
<g id="node14" class="node">
<title>cv</title>
<ellipse fill="none" stroke="black" cx="906" cy="-162" rx="27" ry="18"/>
<text text-anchor="middle" x="906" y="-158.3" font-family="Times,serif" font-size="14.00">cv</text>
</g>
<!-- cv&#45;&gt;&amp;gf -->
<g id="edge11" class="edge">
<title>cv&#45;&gt;&amp;gf</title>
<path fill="none" stroke="black" d="M921.99,-176.6C954.63,-204.37 1031.35,-269.55 1096,-324 1134.13,-356.11 1141.09,-367.52 1182,-396 1208.47,-414.42 1219.11,-412.77 1245,-432 1263.68,-445.87 1263.87,-454.76 1283,-468 1313.07,-488.82 1326.93,-483.18 1357,-504 1376.13,-517.24 1376.63,-525.72 1395,-540 1418.65,-558.39 1428.35,-557.61 1452,-576 1470.37,-590.28 1470.62,-599.13 1490,-612 1523.16,-634.01 1542.02,-621.82 1572,-648 1600.24,-672.67 1605.84,-683.9 1616,-720 1620.33,-735.4 1624.84,-742.66 1616,-756 1593.34,-790.2 1568.56,-775.49 1531,-792 1495.68,-807.53 1488.18,-814.6 1452,-828 1402.1,-846.48 1342.65,-862.67 1305.36,-872.14"/>
<polygon fill="black" stroke="black" points="1304.3,-868.8 1295.45,-874.63 1306,-875.59 1304.3,-868.8"/>
</g>
<!-- kb -->
<g id="node15" class="node">
<title>kb</title>
<ellipse fill="none" stroke="black" cx="777" cy="-90" rx="27" ry="18"/>
<text text-anchor="middle" x="777" y="-86.3" font-family="Times,serif" font-size="14.00">kb</text>
</g>
<!-- cv&#45;&gt;kb -->
<g id="edge10" class="edge">
<title>cv&#45;&gt;kb</title>
<path fill="none" stroke="black" d="M885.56,-149.91C864.24,-138.34 830.6,-120.09 806.42,-106.97"/>
<polygon fill="black" stroke="black" points="807.8,-103.73 797.34,-102.04 804.46,-109.89 807.8,-103.73"/>
</g>
<!-- kb&#45;&gt;&amp;gf -->
<g id="edge95" class="edge">
<title>kb&#45;&gt;&amp;gf</title>
<path fill="none" stroke="black" d="M803.57,-94.03C958.01,-113.27 1742.21,-233.72 1997,-720 2004.43,-734.17 2005.45,-742.41 1997,-756 1977.9,-786.72 1954.53,-772.59 1924,-792 1902.39,-805.74 1902.78,-818.48 1879,-828 1826.08,-849.18 1433.59,-872.08 1307.72,-878.94"/>
<polygon fill="black" stroke="black" points="1307.21,-875.47 1297.41,-879.5 1307.59,-882.46 1307.21,-875.47"/>
</g>
<!-- nj -->
<g id="node16" class="node">
<title>nj</title>
<ellipse fill="none" stroke="black" cx="252" cy="-18" rx="27" ry="18"/>
<text text-anchor="middle" x="252" y="-14.3" font-family="Times,serif" font-size="14.00">nj</text>
</g>
<!-- nj&#45;&gt;&amp;xz -->
<g id="edge12" class="edge">
<title>nj&#45;&gt;&amp;xz</title>
<path fill="none" stroke="black" d="M253.72,-36.06C263.82,-138.03 314.23,-667.93 287,-828 281.37,-861.12 287.78,-876.27 264,-900 229.86,-934.08 173.93,-946.27 136.31,-950.62"/>
<polygon fill="black" stroke="black" points="135.81,-947.15 126.21,-951.65 136.52,-954.12 135.81,-947.15"/>
</g>
<!-- vm -->
<g id="node17" class="node">
<title>vm</title>
<ellipse fill="none" stroke="black" cx="1077" cy="-522" rx="27" ry="18"/>
<text text-anchor="middle" x="1077" y="-518.3" font-family="Times,serif" font-size="14.00">vm</text>
</g>
<!-- &amp;bz -->
<g id="node18" class="node">
<title>&amp;bz</title>
<ellipse fill="none" stroke="black" cx="1242" cy="-810" rx="29.8" ry="18"/>
<text text-anchor="middle" x="1242" y="-806.3" font-family="Times,serif" font-size="14.00">&amp;bz</text>
</g>
<!-- vm&#45;&gt;&amp;bz -->
<g id="edge13" class="edge">
<title>vm&#45;&gt;&amp;bz</title>
<path fill="none" stroke="black" d="M1097.06,-534.2C1115.96,-544.81 1145.03,-561.27 1170,-576 1196.46,-591.61 1202.45,-596.56 1229,-612 1257.55,-628.6 1273.88,-621.81 1294,-648 1323.64,-686.59 1333.66,-712.43 1312,-756 1303.96,-772.16 1288.38,-784.71 1273.96,-793.54"/>
<polygon fill="black" stroke="black" points="1272.14,-790.54 1265.2,-798.55 1275.62,-796.62 1272.14,-790.54"/>
</g>
<!-- xh -->
<g id="node19" class="node">
<title>xh</title>
<ellipse fill="none" stroke="black" cx="1001" cy="-450" rx="27" ry="18"/>
<text text-anchor="middle" x="1001" y="-446.3" font-family="Times,serif" font-size="14.00">xh</text>
</g>
<!-- vm&#45;&gt;xh -->
<g id="edge14" class="edge">
<title>vm&#45;&gt;xh</title>
<path fill="none" stroke="black" d="M1061.62,-506.83C1050.8,-496.87 1036.14,-483.37 1023.95,-472.14"/>
<polygon fill="black" stroke="black" points="1026.08,-469.34 1016.36,-465.14 1021.34,-474.49 1026.08,-469.34"/>
</g>
<!-- &amp;bz&#45;&gt;xh -->
<g id="edge80" class="edge">
<title>&amp;bz&#45;&gt;xh</title>
<path fill="none" stroke="black" d="M1268.28,-801.33C1289.41,-793.62 1317.67,-779.45 1331,-756 1342.92,-735.02 1324.54,-656.79 1319,-648 1315.27,-642.1 1119.04,-507.51 1113,-504 1086.79,-488.78 1055.51,-474.26 1032.68,-464.28"/>
<polygon fill="black" stroke="black" points="1034.02,-461.05 1023.45,-460.29 1031.24,-467.47 1034.02,-461.05"/>
</g>
<!-- &amp;qx -->
<g id="node37" class="node">
<title>&amp;qx</title>
<ellipse fill="none" stroke="black" cx="1091" cy="-738" rx="30.59" ry="18"/>
<text text-anchor="middle" x="1091" y="-734.3" font-family="Times,serif" font-size="14.00">&amp;qx</text>
</g>
<!-- &amp;bz&#45;&gt;&amp;qx -->
<g id="edge78" class="edge">
<title>&amp;bz&#45;&gt;&amp;qx</title>
<path fill="none" stroke="black" d="M1219.07,-798.37C1193.64,-786.58 1152.43,-767.48 1123.64,-754.13"/>
<polygon fill="black" stroke="black" points="1124.94,-750.88 1114.4,-749.85 1122,-757.23 1124.94,-750.88"/>
</g>
<!-- tg -->
<g id="node40" class="node">
<title>tg</title>
<ellipse fill="none" stroke="black" cx="1243" cy="-738" rx="27" ry="18"/>
<text text-anchor="middle" x="1243" y="-734.3" font-family="Times,serif" font-size="14.00">tg</text>
</g>
<!-- &amp;bz&#45;&gt;tg -->
<g id="edge82" class="edge">
<title>&amp;bz&#45;&gt;tg</title>
<path fill="none" stroke="black" d="M1242.25,-791.7C1242.36,-783.98 1242.49,-774.71 1242.61,-766.11"/>
<polygon fill="black" stroke="black" points="1246.11,-766.15 1242.76,-756.1 1239.11,-766.05 1246.11,-766.15"/>
</g>
<!-- cq -->
<g id="node41" class="node">
<title>cq</title>
<ellipse fill="none" stroke="black" cx="1230" cy="-666" rx="27" ry="18"/>
<text text-anchor="middle" x="1230" y="-662.3" font-family="Times,serif" font-size="14.00">cq</text>
</g>
<!-- &amp;bz&#45;&gt;cq -->
<g id="edge79" class="edge">
<title>&amp;bz&#45;&gt;cq</title>
<path fill="none" stroke="black" d="M1256.13,-794.14C1264.56,-784.19 1274.49,-770.34 1279,-756 1283.8,-740.74 1284.83,-734.9 1279,-720 1274.08,-707.42 1264.61,-696.03 1255.3,-687.07"/>
<polygon fill="black" stroke="black" points="1257.39,-684.24 1247.62,-680.14 1252.69,-689.44 1257.39,-684.24"/>
</g>
<!-- fb -->
<g id="node53" class="node">
<title>fb</title>
<ellipse fill="none" stroke="black" cx="691" cy="-954" rx="27" ry="18"/>
<text text-anchor="middle" x="691" y="-950.3" font-family="Times,serif" font-size="14.00">fb</text>
</g>
<!-- &amp;bz&#45;&gt;fb -->
<g id="edge81" class="edge">
<title>&amp;bz&#45;&gt;fb</title>
<path fill="none" stroke="black" d="M1228.2,-825.97C1202.93,-846.51 1148.5,-882.83 1096,-900 958.71,-944.9 915.36,-911.58 773,-936 757.93,-938.58 741.32,-942.38 726.88,-945.73"/>
<polygon fill="black" stroke="black" points="725.76,-942.39 716.81,-948.06 727.34,-949.21 725.76,-942.39"/>
</g>
<!-- qc -->
<g id="node20" class="node">
<title>qc</title>
<ellipse fill="none" stroke="black" cx="890" cy="-378" rx="27" ry="18"/>
<text text-anchor="middle" x="890" y="-374.3" font-family="Times,serif" font-size="14.00">qc</text>
</g>
<!-- xh&#45;&gt;qc -->
<g id="edge15" class="edge">
<title>xh&#45;&gt;qc</title>
<path fill="none" stroke="black" d="M981.92,-436.97C964.29,-425.85 937.88,-409.19 917.88,-396.58"/>
<polygon fill="black" stroke="black" points="919.53,-393.48 909.2,-391.11 915.8,-399.41 919.53,-393.48"/>
</g>
<!-- qc&#45;&gt;&amp;bz -->
<g id="edge56" class="edge">
<title>qc&#45;&gt;&amp;bz</title>
<path fill="none" stroke="black" d="M902.53,-394.3C917.26,-412.17 942.54,-442.55 965,-468 968.6,-472.08 1094.1,-608.2 1098,-612 1115.36,-628.93 1123.27,-629.55 1139,-648 1175.8,-691.16 1176.26,-708.33 1207,-756 1213.01,-765.31 1219.69,-775.48 1225.6,-784.4"/>
<polygon fill="black" stroke="black" points="1222.74,-786.43 1231.19,-792.82 1228.57,-782.56 1222.74,-786.43"/>
</g>
<!-- kh -->
<g id="node50" class="node">
<title>kh</title>
<ellipse fill="none" stroke="black" cx="850" cy="-306" rx="27" ry="18"/>
<text text-anchor="middle" x="850" y="-302.3" font-family="Times,serif" font-size="14.00">kh</text>
</g>
<!-- qc&#45;&gt;kh -->
<g id="edge55" class="edge">
<title>qc&#45;&gt;kh</title>
<path fill="none" stroke="black" d="M880.72,-360.76C875.83,-352.19 869.71,-341.49 864.23,-331.9"/>
<polygon fill="black" stroke="black" points="867.23,-330.09 859.23,-323.15 861.15,-333.57 867.23,-330.09"/>
</g>
<!-- rm -->
<g id="node21" class="node">
<title>rm</title>
<ellipse fill="none" stroke="black" cx="698" cy="-162" rx="27" ry="18"/>
<text text-anchor="middle" x="698" y="-158.3" font-family="Times,serif" font-size="14.00">rm</text>
</g>
<!-- rm&#45;&gt;&amp;bz -->
<g id="edge17" class="edge">
<title>rm&#45;&gt;&amp;bz</title>
<path fill="none" stroke="black" d="M717.1,-174.82C751.56,-196.33 826.1,-243.75 886,-288 906.32,-303.01 910.23,-308.26 930,-324 970.9,-356.55 979.96,-366.34 1023,-396 1048.29,-413.43 1056,-415.64 1082,-432 1131.77,-463.32 1144.38,-470.93 1193,-504 1238.58,-535.01 1253.28,-538.84 1294,-576 1325.2,-604.46 1339.67,-609.06 1356,-648 1364.81,-669 1371.04,-742.13 1362,-756 1344.17,-783.36 1308.67,-796.7 1280.88,-803.14"/>
<polygon fill="black" stroke="black" points="1280.11,-799.73 1271.04,-805.21 1281.55,-806.58 1280.11,-799.73"/>
</g>
<!-- xq -->
<g id="node22" class="node">
<title>xq</title>
<ellipse fill="none" stroke="black" cx="601" cy="-90" rx="27" ry="18"/>
<text text-anchor="middle" x="601" y="-86.3" font-family="Times,serif" font-size="14.00">xq</text>
</g>
<!-- rm&#45;&gt;xq -->
<g id="edge16" class="edge">
<title>rm&#45;&gt;xq</title>
<path fill="none" stroke="black" d="M680.21,-148.16C665.3,-137.41 643.83,-121.91 627,-109.76"/>
<polygon fill="black" stroke="black" points="628.84,-106.77 618.68,-103.76 624.74,-112.45 628.84,-106.77"/>
</g>
<!-- xq&#45;&gt;&amp;bz -->
<g id="edge27" class="edge">
<title>xq&#45;&gt;&amp;bz</title>
<path fill="none" stroke="black" d="M626.97,-95.41C662.76,-102.22 728.53,-117.36 779,-144 880.01,-197.32 1085.49,-401.02 1178,-468 1244.54,-516.18 1272.74,-515.22 1328,-576 1383.86,-637.43 1424.85,-687.45 1378,-756 1356.52,-787.43 1313.41,-800.22 1281.46,-805.43"/>
<polygon fill="black" stroke="black" points="1280.91,-801.97 1271.52,-806.87 1281.91,-808.9 1280.91,-801.97"/>
</g>
<!-- hx -->
<g id="node31" class="node">
<title>hx</title>
<ellipse fill="none" stroke="black" cx="463" cy="-18" rx="27" ry="18"/>
<text text-anchor="middle" x="463" y="-14.3" font-family="Times,serif" font-size="14.00">hx</text>
</g>
<!-- xq&#45;&gt;hx -->
<g id="edge28" class="edge">
<title>xq&#45;&gt;hx</title>
<path fill="none" stroke="black" d="M580.04,-78.37C556.94,-66.65 519.58,-47.7 493.29,-34.37"/>
<polygon fill="black" stroke="black" points="494.66,-31.13 484.16,-29.73 491.49,-37.38 494.66,-31.13"/>
</g>
<!-- zk -->
<g id="node29" class="node">
<title>zk</title>
<ellipse fill="none" stroke="black" cx="532" cy="-522" rx="27" ry="18"/>
<text text-anchor="middle" x="532" y="-518.3" font-family="Times,serif" font-size="14.00">zk</text>
</g>
<!-- lv&#45;&gt;zk -->
<g id="edge25" class="edge">
<title>lv&#45;&gt;zk</title>
<path fill="none" stroke="black" d="M591.02,-578.83C580.49,-568.87 566.22,-555.37 554.34,-544.14"/>
<polygon fill="black" stroke="black" points="556.62,-541.47 546.95,-537.14 551.81,-546.56 556.62,-541.47"/>
</g>
<!-- qn -->
<g id="node36" class="node">
<title>qn</title>
<ellipse fill="none" stroke="black" cx="420" cy="-306" rx="27" ry="18"/>
<text text-anchor="middle" x="420" y="-302.3" font-family="Times,serif" font-size="14.00">qn</text>
</g>
<!-- lz&#45;&gt;qn -->
<g id="edge34" class="edge">
<title>lz&#45;&gt;qn</title>
<path fill="none" stroke="black" d="M479.02,-362.83C468.49,-352.87 454.22,-339.37 442.34,-328.14"/>
<polygon fill="black" stroke="black" points="444.62,-325.47 434.95,-321.14 439.81,-330.56 444.62,-325.47"/>
</g>
<!-- &amp;gh -->
<g id="node38" class="node">
<title>&amp;gh</title>
<ellipse fill="none" stroke="black" cx="513" cy="-90" rx="30.59" ry="18"/>
<text text-anchor="middle" x="513" y="-86.3" font-family="Times,serif" font-size="14.00">&amp;gh</text>
</g>
<!-- &amp;rk&#45;&gt;&amp;gh -->
<g id="edge72" class="edge">
<title>&amp;rk&#45;&gt;&amp;gh</title>
<path fill="none" stroke="black" d="M1068.74,-797.28C1053.4,-787.66 1032.56,-772.9 1018,-756 982.44,-714.72 989.83,-693.59 960,-648 804.03,-409.62 751,-358.9 564,-144 554.96,-133.61 544.49,-122.58 535.4,-113.28"/>
<polygon fill="black" stroke="black" points="537.66,-110.59 528.14,-105.93 532.68,-115.5 537.66,-110.59"/>
</g>
<!-- xv&#45;&gt;lz -->
<g id="edge63" class="edge">
<title>xv&#45;&gt;lz</title>
<path fill="none" stroke="black" d="M508.4,-432.05C506.25,-424.14 503.65,-414.54 501.24,-405.69"/>
<polygon fill="black" stroke="black" points="504.55,-404.52 498.56,-395.79 497.8,-406.36 504.55,-404.52"/>
</g>
<!-- vj&#45;&gt;&amp;jj -->
<g id="edge94" class="edge">
<title>vj&#45;&gt;&amp;jj</title>
<path fill="none" stroke="black" d="M507.49,-945.09C540.81,-935.38 602.79,-917.97 655,-900 660.64,-898.06 666.63,-895.81 672.51,-893.6"/>
<polygon fill="black" stroke="black" points="674.08,-896.75 682.22,-889.97 671.63,-890.19 674.08,-896.75"/>
</g>
<!-- vj&#45;&gt;hb -->
<g id="edge93" class="edge">
<title>vj&#45;&gt;hb</title>
<path fill="none" stroke="black" d="M510.78,-951.1C543.14,-947.23 596.53,-935.51 623,-900 652.14,-860.89 647.21,-800.57 641.07,-765.94"/>
<polygon fill="black" stroke="black" points="644.49,-765.22 639.15,-756.07 637.62,-766.55 644.49,-765.22"/>
</g>
<!-- vh&#45;&gt;gx -->
<g id="edge57" class="edge">
<title>vh&#45;&gt;gx</title>
<path fill="none" stroke="black" d="M406.82,-216.05C405.83,-208.35 404.63,-199.03 403.52,-190.36"/>
<polygon fill="black" stroke="black" points="406.97,-189.75 402.22,-180.28 400.02,-190.64 406.97,-189.75"/>
</g>
<!-- zk&#45;&gt;&amp;jj -->
<g id="edge46" class="edge">
<title>zk&#45;&gt;&amp;jj</title>
<path fill="none" stroke="black" d="M534.33,-540.04C540.3,-579.89 558.62,-681.42 599,-756 605.2,-767.45 656.96,-825.56 686.51,-858.37"/>
<polygon fill="black" stroke="black" points="684.21,-861.04 693.51,-866.12 689.41,-856.35 684.21,-861.04"/>
</g>
<!-- zk&#45;&gt;xv -->
<g id="edge47" class="edge">
<title>zk&#45;&gt;xv</title>
<path fill="none" stroke="black" d="M527.4,-504.05C525.25,-496.14 522.65,-486.54 520.24,-477.69"/>
<polygon fill="black" stroke="black" points="523.55,-476.52 517.56,-467.79 516.8,-478.36 523.55,-476.52"/>
</g>
<!-- vp&#45;&gt;&amp;xz -->
<g id="edge71" class="edge">
<title>vp&#45;&gt;&amp;xz</title>
<path fill="none" stroke="black" d="M149.69,-466.68C164.56,-489.53 190.81,-533.85 201,-576 201.01,-576.04 205.51,-800 203,-828 200.1,-860.39 208.78,-873.45 190,-900 176.07,-919.69 152.37,-933.03 132.38,-941.41"/>
<polygon fill="black" stroke="black" points="130.95,-938.21 122.92,-945.13 133.51,-944.72 130.95,-938.21"/>
</g>
<!-- xx -->
<g id="node46" class="node">
<title>xx</title>
<ellipse fill="none" stroke="black" cx="158" cy="-378" rx="27" ry="18"/>
<text text-anchor="middle" x="158" y="-374.3" font-family="Times,serif" font-size="14.00">xx</text>
</g>
<!-- vp&#45;&gt;xx -->
<g id="edge70" class="edge">
<title>vp&#45;&gt;xx</title>
<path fill="none" stroke="black" d="M143.6,-432.05C145.75,-424.14 148.35,-414.54 150.76,-405.69"/>
<polygon fill="black" stroke="black" points="154.2,-406.36 153.44,-395.79 147.45,-404.52 154.2,-406.36"/>
</g>
<!-- hx&#45;&gt;&amp;bz -->
<g id="edge96" class="edge">
<title>hx&#45;&gt;&amp;bz</title>
<path fill="none" stroke="black" d="M487.4,-25.77C521.24,-35.31 584.22,-53.61 637,-72 678.27,-86.38 781.84,-122.7 820,-144 831.64,-150.5 905.54,-207.73 916,-216 1014.02,-293.51 1033.98,-318.49 1132,-396 1194.75,-445.62 1214.05,-453.38 1276,-504 1313.3,-534.48 1325.56,-539.51 1357,-576 1410.69,-638.31 1449.86,-690.59 1400,-756 1372.34,-792.28 1318.82,-803.98 1281.78,-807.61"/>
<polygon fill="black" stroke="black" points="1281.48,-804.12 1271.81,-808.43 1282.06,-811.1 1281.48,-804.12"/>
</g>
<!-- vx -->
<g id="node32" class="node">
<title>vx</title>
<ellipse fill="none" stroke="black" cx="1047" cy="-234" rx="27" ry="18"/>
<text text-anchor="middle" x="1047" y="-230.3" font-family="Times,serif" font-size="14.00">vx</text>
</g>
<!-- vx&#45;&gt;&amp;gf -->
<g id="edge29" class="edge">
<title>vx&#45;&gt;&amp;gf</title>
<path fill="none" stroke="black" d="M1069.48,-244.38C1093.91,-254.68 1134.01,-271.91 1168,-288 1327.17,-363.36 1364.08,-388.07 1521,-468 1646.75,-532.05 1677.82,-548.79 1804,-612 1836.34,-628.2 1857.9,-617.28 1877,-648 1885.45,-661.59 1878.75,-668.1 1877,-684 1873.42,-716.58 1875.21,-726.46 1861,-756 1852.09,-774.51 1821.07,-818.23 1803,-828 1759.64,-851.45 1423,-872.35 1307.64,-878.89"/>
<polygon fill="black" stroke="black" points="1307.28,-875.4 1297.49,-879.46 1307.67,-882.39 1307.28,-875.4"/>
</g>
<!-- vx&#45;&gt;cv -->
<g id="edge30" class="edge">
<title>vx&#45;&gt;cv</title>
<path fill="none" stroke="black" d="M1025.89,-222.52C1002.11,-210.72 963.27,-191.43 936.27,-178.03"/>
<polygon fill="black" stroke="black" points="937.77,-174.86 927.25,-173.55 934.65,-181.13 937.77,-174.86"/>
</g>
<!-- mx -->
<g id="node33" class="node">
<title>mx</title>
<ellipse fill="none" stroke="black" cx="146" cy="-666" rx="27" ry="18"/>
<text text-anchor="middle" x="146" y="-662.3" font-family="Times,serif" font-size="14.00">mx</text>
</g>
<!-- mx&#45;&gt;&amp;xz -->
<g id="edge32" class="edge">
<title>mx&#45;&gt;&amp;xz</title>
<path fill="none" stroke="black" d="M151.17,-683.93C159.48,-713.28 174.16,-775.49 167,-828 162.51,-860.91 163.32,-871.07 147,-900 140.4,-911.71 130.66,-922.83 121.53,-931.83"/>
<polygon fill="black" stroke="black" points="118.95,-929.45 114.09,-938.86 123.76,-934.54 118.95,-929.45"/>
</g>
<!-- mx&#45;&gt;mt -->
<g id="edge31" class="edge">
<title>mx&#45;&gt;mt</title>
<path fill="none" stroke="black" d="M150.6,-648.05C152.75,-640.14 155.35,-630.54 157.76,-621.69"/>
<polygon fill="black" stroke="black" points="161.2,-622.36 160.44,-611.79 154.45,-620.52 161.2,-622.36"/>
</g>
<!-- kn -->
<g id="node35" class="node">
<title>kn</title>
<ellipse fill="none" stroke="black" cx="1683" cy="-594" rx="27" ry="18"/>
<text text-anchor="middle" x="1683" y="-590.3" font-family="Times,serif" font-size="14.00">kn</text>
</g>
<!-- gg&#45;&gt;kn -->
<g id="edge33" class="edge">
<title>gg&#45;&gt;kn</title>
<path fill="none" stroke="black" d="M1819.03,-655.27C1791.79,-643.2 1745.19,-622.55 1714.24,-608.84"/>
<polygon fill="black" stroke="black" points="1715.34,-605.5 1704.78,-604.65 1712.51,-611.9 1715.34,-605.5"/>
</g>
<!-- kn&#45;&gt;&amp;gf -->
<g id="edge83" class="edge">
<title>kn&#45;&gt;&amp;gf</title>
<path fill="none" stroke="black" d="M1703.94,-605.73C1721,-615.19 1744.97,-630.23 1762,-648 1787.95,-675.07 1795.84,-683.9 1806,-720 1810.33,-735.4 1812.51,-741.38 1806,-756 1796.27,-777.85 1783.68,-775.89 1766,-792 1748.57,-807.89 1748.44,-818.16 1727,-828 1652.5,-862.2 1404.03,-875.6 1307.66,-879.59"/>
<polygon fill="black" stroke="black" points="1307.33,-876.1 1297.48,-880 1307.62,-883.1 1307.33,-876.1"/>
</g>
<!-- kn&#45;&gt;tz -->
<g id="edge84" class="edge">
<title>kn&#45;&gt;tz</title>
<path fill="none" stroke="black" d="M1662.51,-582.22C1640.41,-570.59 1605.02,-551.96 1579.84,-538.7"/>
<polygon fill="black" stroke="black" points="1581.21,-535.47 1570.73,-533.91 1577.95,-541.67 1581.21,-535.47"/>
</g>
<!-- qn&#45;&gt;&amp;jj -->
<g id="edge102" class="edge">
<title>qn&#45;&gt;&amp;jj</title>
<path fill="none" stroke="black" d="M424.12,-324.01C439.23,-384.93 495.16,-596.96 578,-756 595.88,-790.33 599.46,-800.8 627,-828 641.86,-842.68 661.36,-855.69 677.38,-865.15"/>
<polygon fill="black" stroke="black" points="675.94,-868.36 686.36,-870.3 679.42,-862.29 675.94,-868.36"/>
</g>
<!-- qn&#45;&gt;vh -->
<g id="edge101" class="edge">
<title>qn&#45;&gt;vh</title>
<path fill="none" stroke="black" d="M417.34,-288.05C416.13,-280.35 414.66,-271.03 413.3,-262.36"/>
<polygon fill="black" stroke="black" points="416.72,-261.61 411.71,-252.28 409.81,-262.7 416.72,-261.61"/>
</g>
<!-- &amp;qx&#45;&gt;&amp;gh -->
<g id="edge35" class="edge">
<title>&amp;qx&#45;&gt;&amp;gh</title>
<path fill="none" stroke="black" d="M1081.61,-720.56C1071.08,-702.42 1053.21,-672.54 1036,-648 989.13,-581.17 977.49,-563.86 922,-504 905.96,-486.7 899.46,-484.9 883,-468 871.88,-456.58 704.08,-264.36 694,-252 655.91,-205.29 657.84,-183.12 612,-144 592.67,-127.5 567.36,-114.06 547.16,-104.85"/>
<polygon fill="black" stroke="black" points="548.56,-101.64 538,-100.79 545.73,-108.04 548.56,-101.64"/>
</g>
<!-- jm -->
<g id="node39" class="node">
<title>jm</title>
<ellipse fill="none" stroke="black" cx="1134" cy="-594" rx="27" ry="18"/>
<text text-anchor="middle" x="1134" y="-590.3" font-family="Times,serif" font-size="14.00">jm</text>
</g>
<!-- jm&#45;&gt;vm -->
<g id="edge36" class="edge">
<title>jm&#45;&gt;vm</title>
<path fill="none" stroke="black" d="M1121.63,-577.81C1114.09,-568.55 1104.3,-556.52 1095.81,-546.09"/>
<polygon fill="black" stroke="black" points="1098.37,-543.7 1089.34,-538.16 1092.94,-548.12 1098.37,-543.7"/>
</g>
<!-- jm&#45;&gt;&amp;bz -->
<g id="edge37" class="edge">
<title>jm&#45;&gt;&amp;bz</title>
<path fill="none" stroke="black" d="M1157.26,-603.2C1192.96,-615.95 1257.99,-639.9 1266,-648 1300.87,-683.25 1312.76,-710.1 1294,-756 1288.73,-768.9 1278.64,-780.36 1268.74,-789.29"/>
<polygon fill="black" stroke="black" points="1266.31,-786.76 1260.93,-795.89 1270.83,-792.1 1266.31,-786.76"/>
</g>
<!-- tg&#45;&gt;cq -->
<g id="edge38" class="edge">
<title>tg&#45;&gt;cq</title>
<path fill="none" stroke="black" d="M1239.85,-720.05C1238.42,-712.35 1236.69,-703.03 1235.08,-694.36"/>
<polygon fill="black" stroke="black" points="1238.48,-693.47 1233.21,-684.28 1231.59,-694.75 1238.48,-693.47"/>
</g>
<!-- cq&#45;&gt;jm -->
<g id="edge97" class="edge">
<title>cq&#45;&gt;jm</title>
<path fill="none" stroke="black" d="M1212.39,-652.16C1197.64,-641.41 1176.39,-625.91 1159.73,-613.76"/>
<polygon fill="black" stroke="black" points="1161.64,-610.82 1151.5,-607.76 1157.51,-616.48 1161.64,-610.82"/>
</g>
<!-- pt&#45;&gt;vx -->
<g id="edge51" class="edge">
<title>pt&#45;&gt;vx</title>
<path fill="none" stroke="black" d="M1115.61,-291.5C1103.03,-281.14 1085.46,-266.67 1071.25,-254.97"/>
<polygon fill="black" stroke="black" points="1073.28,-252.11 1063.34,-248.46 1068.83,-257.51 1073.28,-252.11"/>
</g>
<!-- cp&#45;&gt;gg -->
<g id="edge100" class="edge">
<title>cp&#45;&gt;gg</title>
<path fill="none" stroke="black" d="M1941.18,-725.44C1921.73,-714.09 1891.84,-696.66 1869.77,-683.78"/>
<polygon fill="black" stroke="black" points="1871.25,-680.59 1860.84,-678.58 1867.72,-686.64 1871.25,-680.59"/>
</g>
<!-- rz -->
<g id="node52" class="node">
<title>rz</title>
<ellipse fill="none" stroke="black" cx="1400" cy="-450" rx="27" ry="18"/>
<text text-anchor="middle" x="1400" y="-446.3" font-family="Times,serif" font-size="14.00">rz</text>
</g>
<!-- tz&#45;&gt;rz -->
<g id="edge62" class="edge">
<title>tz&#45;&gt;rz</title>
<path fill="none" stroke="black" d="M1528.51,-510.97C1502.89,-499.02 1459.89,-478.95 1430.76,-465.35"/>
<polygon fill="black" stroke="black" points="1431.99,-462.07 1421.45,-461.01 1429.03,-468.41 1431.99,-462.07"/>
</g>
<!-- &amp;cd&#45;&gt;&amp;gh -->
<g id="edge50" class="edge">
<title>&amp;cd&#45;&gt;&amp;gh</title>
<path fill="none" stroke="black" d="M1434.95,-797.59C1439.22,-795.58 1443.7,-793.62 1448,-792 1504.08,-770.82 1541.7,-803.72 1578,-756 1607.11,-717.73 1535.22,-649.06 1534,-648 1504.02,-621.82 1485.16,-634.01 1452,-612 1432.62,-599.13 1432.41,-590.23 1414,-576 1405.78,-569.64 787.48,-186.01 779,-180 758.1,-165.2 757.15,-154.96 734,-144 664.59,-111.13 639.16,-127.96 565,-108 559.55,-106.53 553.84,-104.83 548.27,-103.09"/>
<polygon fill="black" stroke="black" points="549.09,-99.67 538.49,-99.93 546.93,-106.33 549.09,-99.67"/>
</g>
<!-- xx&#45;&gt;&amp;xz -->
<g id="edge49" class="edge">
<title>xx&#45;&gt;&amp;xz</title>
<path fill="none" stroke="black" d="M166.73,-395.41C202.13,-464.45 327.66,-735.29 211,-900 193.24,-925.08 160.52,-938.6 134.68,-945.7"/>
<polygon fill="black" stroke="black" points="133.64,-942.35 124.81,-948.19 135.36,-949.14 133.64,-942.35"/>
</g>
<!-- kp -->
<g id="node47" class="node">
<title>kp</title>
<ellipse fill="none" stroke="black" cx="168" cy="-306" rx="27" ry="18"/>
<text text-anchor="middle" x="168" y="-302.3" font-family="Times,serif" font-size="14.00">kp</text>
</g>
<!-- xx&#45;&gt;kp -->
<g id="edge48" class="edge">
<title>xx&#45;&gt;kp</title>
<path fill="none" stroke="black" d="M160.42,-360.05C161.52,-352.35 162.85,-343.03 164.09,-334.36"/>
<polygon fill="black" stroke="black" points="167.58,-334.67 165.53,-324.28 160.65,-333.68 167.58,-334.67"/>
</g>
<!-- kp&#45;&gt;&amp;xz -->
<g id="edge86" class="edge">
<title>kp&#45;&gt;&amp;xz</title>
<path fill="none" stroke="black" d="M176.97,-323.37C182.38,-333.68 189.14,-347.38 194,-360 258.56,-527.55 285.16,-576.79 274,-756 269.89,-822.06 283.24,-853.63 236,-900 208.59,-926.9 166.13,-940.43 135.35,-947.05"/>
<polygon fill="black" stroke="black" points="134.52,-943.65 125.4,-949.04 135.89,-950.51 134.52,-943.65"/>
</g>
<!-- kp&#45;&gt;nj -->
<g id="edge85" class="edge">
<title>kp&#45;&gt;nj</title>
<path fill="none" stroke="black" d="M173,-287.97C187.07,-240.08 227.04,-103.98 244.11,-45.85"/>
<polygon fill="black" stroke="black" points="247.56,-46.53 247.02,-35.94 240.85,-44.55 247.56,-46.53"/>
</g>
<!-- rr&#45;&gt;&amp;xz -->
<g id="edge98" class="edge">
<title>rr&#45;&gt;&amp;xz</title>
<path fill="none" stroke="black" d="M112.82,-828.19C109.75,-852.42 104.11,-896.89 100.46,-925.68"/>
<polygon fill="black" stroke="black" points="96.96,-925.51 99.17,-935.87 103.9,-926.39 96.96,-925.51"/>
</g>
<!-- rr&#45;&gt;rv -->
<g id="edge99" class="edge">
<title>rr&#45;&gt;rv</title>
<path fill="none" stroke="black" d="M116.98,-791.7C117.86,-783.98 118.92,-774.71 119.9,-766.11"/>
<polygon fill="black" stroke="black" points="123.39,-766.44 121.05,-756.1 116.43,-765.64 123.39,-766.44"/>
</g>
<!-- xr&#45;&gt;&amp;jj -->
<g id="edge104" class="edge">
<title>xr&#45;&gt;&amp;jj</title>
<path fill="none" stroke="black" d="M349.74,-29.73C367.37,-39.41 392.79,-54.75 412,-72 671.16,-304.81 782.67,-378.81 853,-720 862.71,-767.11 875.18,-789.76 846,-828 821.76,-859.78 776.03,-872.5 743.65,-877.6"/>
<polygon fill="black" stroke="black" points="743.07,-874.15 733.65,-879 744.04,-881.08 743.07,-874.15"/>
</g>
<!-- kh&#45;&gt;&amp;bz -->
<g id="edge108" class="edge">
<title>kh&#45;&gt;&amp;bz</title>
<path fill="none" stroke="black" d="M868.42,-319.51C894.02,-336.84 941.84,-369.08 983,-396 1044.13,-435.98 1200.51,-530.95 1258,-576 1276.82,-590.75 1327.08,-626.72 1338,-648 1346.15,-663.88 1356.23,-739.3 1346,-756 1331.64,-779.43 1303.31,-792.91 1279.83,-800.41"/>
<polygon fill="black" stroke="black" points="1278.73,-797.09 1270.13,-803.27 1280.71,-803.8 1278.73,-797.09"/>
</g>
<!-- tp -->
<g id="node58" class="node">
<title>tp</title>
<ellipse fill="none" stroke="black" cx="730" cy="-234" rx="27" ry="18"/>
<text text-anchor="middle" x="730" y="-230.3" font-family="Times,serif" font-size="14.00">tp</text>
</g>
<!-- kh&#45;&gt;tp -->
<g id="edge107" class="edge">
<title>kh&#45;&gt;tp</title>
<path fill="none" stroke="black" d="M830.18,-293.44C810.73,-282.09 780.84,-264.66 758.77,-251.78"/>
<polygon fill="black" stroke="black" points="760.25,-248.59 749.84,-246.58 756.72,-254.64 760.25,-248.59"/>
</g>
<!-- qq -->
<g id="node51" class="node">
<title>qq</title>
<ellipse fill="none" stroke="black" cx="1265" cy="-378" rx="27" ry="18"/>
<text text-anchor="middle" x="1265" y="-374.3" font-family="Times,serif" font-size="14.00">qq</text>
</g>
<!-- qq&#45;&gt;&amp;gf -->
<g id="edge59" class="edge">
<title>qq&#45;&gt;&amp;gf</title>
<path fill="none" stroke="black" d="M1279.94,-393.28C1303.03,-415.2 1346.53,-455.88 1364,-468 1392.42,-487.72 1404.84,-483.91 1433,-504 1451.94,-517.51 1452.63,-525.72 1471,-540 1494.65,-558.39 1504.35,-557.61 1528,-576 1546.37,-590.28 1546.62,-599.13 1566,-612 1599.16,-634.01 1618.02,-621.82 1648,-648 1687.04,-682.1 1715.63,-709.87 1692,-756 1692,-756 1592,-828 1592,-828 1495.25,-868.15 1370.36,-877.96 1308.02,-880.3"/>
<polygon fill="black" stroke="black" points="1307.72,-876.81 1297.84,-880.64 1307.95,-883.81 1307.72,-876.81"/>
</g>
<!-- qq&#45;&gt;pt -->
<g id="edge58" class="edge">
<title>qq&#45;&gt;pt</title>
<path fill="none" stroke="black" d="M1244.51,-366.22C1222.41,-354.59 1187.02,-335.96 1161.84,-322.7"/>
<polygon fill="black" stroke="black" points="1163.21,-319.47 1152.73,-317.91 1159.95,-325.67 1163.21,-319.47"/>
</g>
<!-- rz&#45;&gt;&amp;gf -->
<g id="edge106" class="edge">
<title>rz&#45;&gt;&amp;gf</title>
<path fill="none" stroke="black" d="M1417.71,-463.8C1432.2,-474.37 1453.14,-489.88 1471,-504 1490.55,-519.46 1494.18,-524.89 1514,-540 1536.36,-557.04 1544.18,-558.28 1566,-576 1584.06,-590.66 1584.62,-599.13 1604,-612 1637.16,-634.01 1656.02,-621.82 1686,-648 1725.04,-682.1 1752.2,-709.16 1730,-756 1730,-756 1642,-828 1642,-828 1582.41,-854.15 1390.09,-871.67 1307.39,-878.18"/>
<polygon fill="black" stroke="black" points="1307.1,-874.69 1297.4,-878.95 1307.64,-881.67 1307.1,-874.69"/>
</g>
<!-- rz&#45;&gt;qq -->
<g id="edge105" class="edge">
<title>rz&#45;&gt;qq</title>
<path fill="none" stroke="black" d="M1379.2,-438.22C1356.54,-426.47 1320.11,-407.57 1294.5,-394.3"/>
<polygon fill="black" stroke="black" points="1296.09,-391.18 1285.6,-389.68 1292.87,-397.39 1296.09,-391.18"/>
</g>
<!-- fb&#45;&gt;&amp;bz -->
<g id="edge64" class="edge">
<title>fb&#45;&gt;&amp;bz</title>
<path fill="none" stroke="black" d="M714.45,-944.73C726.55,-941.65 741.41,-938.33 755,-936 897.36,-911.58 940.71,-944.9 1078,-900 1128.41,-883.51 1180.61,-849.36 1212.41,-828.49"/>
<polygon fill="black" stroke="black" points="1214.37,-831.39 1220.82,-822.98 1210.53,-825.53 1214.37,-831.39"/>
</g>
<!-- fb&#45;&gt;tg -->
<g id="edge65" class="edge">
<title>fb&#45;&gt;tg</title>
<path fill="none" stroke="black" d="M715.94,-946.9C730.02,-943.53 747.95,-939.36 764,-936 849.84,-918.05 873.32,-922.79 958,-900 1004.02,-887.61 1120.17,-854.17 1160,-828 1186.61,-810.52 1210.65,-782.78 1225.93,-762.91"/>
<polygon fill="black" stroke="black" points="1228.91,-764.77 1232.12,-754.67 1223.31,-760.57 1228.91,-764.77"/>
</g>
<!-- gr&#45;&gt;xb -->
<g id="edge66" class="edge">
<title>gr&#45;&gt;xb</title>
<path fill="none" stroke="black" d="M332.91,-179.95C343.17,-209.33 365.02,-271.59 384,-324 619.73,-974.86 602.99,-876.19 584,-900 575.58,-910.56 123,-1004.36 110,-1008 104.13,-1009.64 97.93,-1011.56 91.96,-1013.49"/>
<polygon fill="black" stroke="black" points="90.6,-1010.26 82.21,-1016.73 92.8,-1016.9 90.6,-1010.26"/>
</g>
<!-- gr&#45;&gt;&amp;xz -->
<g id="edge67" class="edge">
<title>gr&#45;&gt;&amp;xz</title>
<path fill="none" stroke="black" d="M334.61,-179.49C342.22,-208.68 351.03,-271.35 360,-324 466.54,-949.38 500.78,-838.41 448,-900 428.09,-923.24 223.29,-943.05 135.94,-950.18"/>
<polygon fill="black" stroke="black" points="135.58,-946.7 125.89,-950.98 136.14,-953.67 135.58,-946.7"/>
</g>
<!-- &amp;zf&#45;&gt;&amp;gh -->
<g id="edge69" class="edge">
<title>&amp;zf&#45;&gt;&amp;gh</title>
<path fill="none" stroke="black" d="M540.26,-864.44C529.1,-840.53 507.86,-794.92 490,-756 389.01,-535.91 301.34,-493.46 283,-252 279.35,-204.01 259.13,-180.07 291,-144 303.12,-130.28 413.44,-108.75 473.86,-97.83"/>
<polygon fill="black" stroke="black" points="474.59,-101.26 483.81,-96.05 473.35,-94.37 474.59,-101.26"/>
</g>
<!-- rv&#45;&gt;mx -->
<g id="edge103" class="edge">
<title>rv&#45;&gt;mx</title>
<path fill="none" stroke="black" d="M128.57,-720.05C131.2,-712.06 134.39,-702.33 137.33,-693.4"/>
<polygon fill="black" stroke="black" points="140.69,-694.38 140.48,-683.79 134.04,-692.2 140.69,-694.38"/>
</g>
<!-- broadcaster -->
<g id="node57" class="node">
<title>broadcaster</title>
<ellipse fill="none" stroke="black" cx="185" cy="-1026" rx="66.09" ry="18"/>
<text text-anchor="middle" x="185" y="-1022.3" font-family="Times,serif" font-size="14.00">broadcaster</text>
</g>
<!-- broadcaster&#45;&gt;xk -->
<g id="edge87" class="edge">
<title>broadcaster&#45;&gt;xk</title>
<path fill="none" stroke="black" d="M249.18,-1021.46C351,-1015.23 555.58,-1000.22 727,-972 739.64,-969.92 753.35,-966.93 765.44,-964.03"/>
<polygon fill="black" stroke="black" points="766.29,-967.43 775.16,-961.64 764.61,-960.63 766.29,-967.43"/>
</g>
<!-- broadcaster&#45;&gt;vj -->
<g id="edge89" class="edge">
<title>broadcaster&#45;&gt;vj</title>
<path fill="none" stroke="black" d="M233.37,-1013.68C293.65,-999.56 395.21,-975.79 448.67,-963.27"/>
<polygon fill="black" stroke="black" points="449.75,-966.61 458.69,-960.93 448.15,-959.8 449.75,-966.61"/>
</g>
<!-- broadcaster&#45;&gt;fb -->
<g id="edge90" class="edge">
<title>broadcaster&#45;&gt;fb</title>
<path fill="none" stroke="black" d="M246.98,-1019.52C331.31,-1011.58 486.75,-995.25 618,-972 630.61,-969.77 644.32,-966.74 656.41,-963.85"/>
<polygon fill="black" stroke="black" points="657.25,-967.25 666.13,-961.49 655.59,-960.45 657.25,-967.25"/>
</g>
<!-- broadcaster&#45;&gt;gr -->
<g id="edge88" class="edge">
<title>broadcaster&#45;&gt;gr</title>
<path fill="none" stroke="black" d="M243.74,-1017.59C310.89,-1008.68 423.94,-992.35 520,-972 580.75,-959.13 594.79,-951.18 655,-936 789.22,-902.16 822.97,-894.42 958,-864 1032.92,-847.12 1078.68,-887.69 1127,-828 1176.88,-766.38 1051.72,-756.64 1051,-756 1008.57,-718.36 1019.54,-691.39 983,-648 868.42,-511.96 795.55,-427.18 445,-216 411.25,-195.67 399.9,-196.22 364,-180 361.96,-179.08 359.86,-178.12 357.74,-177.16"/>
<polygon fill="black" stroke="black" points="359.05,-173.91 348.5,-172.93 356.14,-180.28 359.05,-173.91"/>
</g>
<!-- tp&#45;&gt;&amp;bz -->
<g id="edge92" class="edge">
<title>tp&#45;&gt;&amp;bz</title>
<path fill="none" stroke="black" d="M741.04,-250.58C762.01,-279.89 809.53,-344.9 854,-396 898.15,-446.73 914.2,-454.75 960,-504 1010.82,-558.65 1129.26,-703.19 1182,-756 1193.14,-767.16 1206.19,-778.84 1217.27,-788.38"/>
<polygon fill="black" stroke="black" points="1215.06,-791.09 1224.94,-794.92 1219.6,-785.77 1215.06,-791.09"/>
</g>
<!-- tp&#45;&gt;rm -->
<g id="edge91" class="edge">
<title>tp&#45;&gt;rm</title>
<path fill="none" stroke="black" d="M722.42,-216.41C718.63,-208.13 713.97,-197.92 709.73,-188.66"/>
<polygon fill="black" stroke="black" points="712.87,-187.11 705.53,-179.47 706.5,-190.02 712.87,-187.11"/>
</g>
</g>
</svg>
